<?xml version="1.0" encoding="UTF-8"?>
<svg version="1.1" xmlns="http://www.w3.org/2000/svg" width="1024" height="1024">
<path d="M0 0 C1.45823212 -0.0270043 2.91660675 -0.04639787 4.375 -0.0625 C5.18710937 -0.07410156 5.99921875 -0.08570313 6.8359375 -0.09765625 C9 0 9 0 11 1 C12.36500682 9.00567285 12.14845674 17.10388556 12.14526367 25.20263672 C12.1482603 26.72617169 12.15166398 28.2497059 12.15544128 29.77323914 C12.16422716 33.8864169 12.1666169 37.99957383 12.16725707 42.11276007 C12.16796984 44.68360579 12.17010828 47.25444627 12.17275429 49.82529068 C12.18198472 58.79596542 12.18609144 67.76662535 12.18530273 76.73730469 C12.18470025 85.09953568 12.19529131 93.46170253 12.2110464 101.82391727 C12.22410429 109.0105011 12.22948748 116.19706388 12.22884732 123.38365948 C12.22859213 127.67330573 12.23145617 131.96289472 12.24202538 136.25252914 C12.25167866 140.27942016 12.25180473 144.30619875 12.24450874 148.33309364 C12.24345994 149.81217042 12.24584324 151.29125411 12.2518692 152.77031898 C12.259549 154.78533167 12.2537632 156.80038242 12.24723816 158.81539917 C12.24778293 159.94396772 12.24832769 161.07253628 12.24888897 162.23530388 C12 165 12 165 10 168 C7.3984375 168.29296875 7.3984375 168.29296875 4.375 168.1875 C3.37210938 168.16042969 2.36921875 168.13335937 1.3359375 168.10546875 C0.56507813 168.07066406 -0.20578125 168.03585937 -1 168 C-1.30852905 167.08057617 -1.30852905 167.08057617 -1.62329102 166.14257812 C-12.61984016 133.53401431 -27.14584887 102.9628769 -50.8203125 77.48828125 C-52 76 -52 76 -52 74 C-52.66 74 -53.32 74 -54 74 C-55.3046875 72.671875 -55.3046875 72.671875 -56.875 70.75 C-69.31656191 56.23910233 -83.63350851 44.84929578 -100 35 C-100.88171875 34.44054687 -101.7634375 33.88109375 -102.671875 33.3046875 C-123.51923523 20.46225288 -146.76722667 14.01939778 -171 12 C-171 153.24 -171 294.48 -171 440 C-164.89806104 440 -159.63465064 439.84969539 -153.75 438.75 C-153.01402588 438.61360107 -152.27805176 438.47720215 -151.51977539 438.33666992 C-135.37572068 435.22065893 -120.21421983 428.88953339 -107 419 C-106.40574219 418.55785156 -105.81148437 418.11570312 -105.19921875 417.66015625 C-102.23660632 415.33390448 -100.57852665 413.36752352 -99 410 C-98.278125 409.29875 -97.55625 408.5975 -96.8125 407.875 C-75.56317168 387.18486453 -68.18279728 350.99680031 -67.72961426 322.56387329 C-67.40325445 292.47590699 -71.03733925 261.3791308 -92.46435547 238.30273438 C-105.68733736 224.88875879 -123.60942996 218.20384613 -142.203125 217.44140625 C-145.45227673 216.92862113 -147.38041397 215.97283211 -150 214 C-150.9375 210.9375 -150.9375 210.9375 -151 208 C-148.53014658 205.53014658 -147.13906912 205.761993 -143.76894557 205.74183738 C-143.03549108 205.74766307 -142.30203659 205.75348875 -141.5463562 205.75949097 C-140.7687724 205.75778212 -139.9911886 205.75607327 -139.19004166 205.75431263 C-136.57044993 205.75100425 -133.95111131 205.76204346 -131.33154297 205.77294922 C-129.45935065 205.77351304 -127.58715788 205.77319734 -125.71496582 205.77206421 C-120.62016697 205.77148857 -115.52546162 205.783277 -110.43068457 205.79721212 C-105.11086846 205.80968434 -99.79105039 205.8108872 -94.47122192 205.81326294 C-84.39188348 205.81948805 -74.31258824 205.83591279 -64.23326886 205.85596192 C-52.76065357 205.87828889 -41.28803625 205.88930628 -29.81540465 205.89935279 C-6.21024579 205.92027814 17.39487469 205.9554741 41 206 C42.13393501 208.26787002 42.12528196 209.49005874 42.12584114 212.00708866 C42.12975276 213.27138426 42.12975276 213.27138426 42.13374341 214.56122118 C42.13039732 215.95803729 42.13039732 215.95803729 42.12698364 217.3830719 C42.12854363 218.3682113 42.13010362 219.3533507 42.13171089 220.36834282 C42.13571973 223.69031965 42.13253168 227.01225129 42.12939453 230.33422852 C42.13074861 232.70725532 42.13252859 235.08028191 42.13470459 237.45330811 C42.13880227 243.24197513 42.13818709 249.03062764 42.13529195 254.81929512 C42.13303706 259.5217577 42.13272577 264.22421664 42.13381577 268.92667961 C42.133969 269.59498197 42.13412223 270.26328432 42.13428011 270.95183827 C42.13459982 272.30930647 42.13492403 273.66677467 42.1352527 275.02424287 C42.13810663 287.76352761 42.13482171 300.50280517 42.12945233 313.24208873 C42.12498335 324.18410116 42.12576117 335.12610299 42.13037109 346.06811523 C42.13571663 358.76218193 42.13783303 371.45624232 42.13475883 384.15030998 C42.13444027 385.50258537 42.1341259 386.85486076 42.13381577 388.20713615 C42.13366149 388.87255604 42.13350721 389.53797593 42.13334826 390.22356005 C42.13248312 394.92343592 42.1339459 399.62330781 42.13629532 404.32318306 C42.13917264 410.64237322 42.13720092 416.96154323 42.13140106 423.2807312 C42.13007277 425.60723271 42.13046874 427.93373589 42.13266373 430.26023674 C42.1353725 433.42148504 42.13199748 436.58266769 42.12698364 439.74391174 C42.12921436 440.6773532 42.13144509 441.61079466 42.13374341 442.57252222 C42.1141499 448.8858501 42.1141499 448.8858501 41 450 C39.31391034 450.07205511 37.62499341 450.08386068 35.9375 450.0625 C35.01839844 450.05347656 34.09929687 450.04445313 33.15234375 450.03515625 C32.44207031 450.02355469 31.73179687 450.01195312 31 450 C30.40832031 448.91460938 29.81664062 447.82921875 29.20703125 446.7109375 C28.40919114 445.26543895 27.61099506 443.82013685 26.8125 442.375 C26.42513672 441.66214844 26.03777344 440.94929688 25.63867188 440.21484375 C19.11462912 428.46078325 10.30476449 422.14537948 -2.39453125 417.7265625 C-7.83285245 416.21002915 -13.186307 415.7670409 -18.8125 415.6875 C-19.77446289 415.64399414 -19.77446289 415.64399414 -20.75585938 415.59960938 C-35.30526523 415.42167685 -49.41783765 421.39853501 -62.69064331 426.68395996 C-79.56153544 433.38390657 -96.39185059 439.50914278 -114 444 C-114.83821289 444.21543457 -115.67642578 444.43086914 -116.54003906 444.65283203 C-174.42963615 459.11935538 -236.5826009 450.75566683 -287.890625 420.1640625 C-303.76885 410.28549046 -317.82398525 398.21797658 -331 385 C-331.76699219 384.2678125 -332.53398437 383.535625 -333.32421875 382.78125 C-339.9742944 376.36200342 -345.55175362 369.42323569 -351 362 C-351.4125 361.44828125 -351.825 360.8965625 -352.25 360.328125 C-367.75425872 339.59117896 -380.15274237 316.06084851 -387 291 C-387.24057129 290.13036621 -387.48114258 289.26073242 -387.72900391 288.36474609 C-404.20840723 227.58740376 -396.60930767 164.30111335 -365.55371094 109.4453125 C-362.60187071 104.4605418 -359.39020743 99.69538498 -356 95 C-355.50032715 94.30261719 -355.0006543 93.60523438 -354.48583984 92.88671875 C-346.75526325 82.19728864 -338.3034376 72.3476036 -329 63 C-328.44231934 62.43829102 -327.88463867 61.87658203 -327.31005859 61.29785156 C-308.28355506 42.36573103 -284.70930697 27.37508501 -260 17 C-259.28086426 16.69755371 -258.56172852 16.39510742 -257.82080078 16.08349609 C-219.82449989 0.43599682 -177.33018719 -3.01338403 -137 4 C-135.9486084 4.18272461 -134.8972168 4.36544922 -133.81396484 4.55371094 C-116.11528867 7.74119986 -98.82142923 12.29895253 -81.51196289 17.12890625 C-61.65682118 22.71041023 -61.65682118 22.71041023 -41.1875 24.375 C-40.38908691 24.36557373 -39.59067383 24.35614746 -38.76806641 24.34643555 C-28.0754892 24.0739648 -17.74879968 21.44192425 -9.8046875 13.921875 C-5.82273248 9.60196808 -2.66896688 5.2267268 0 0 Z M-280.48828125 190.13671875 C-282.89785109 193.10665367 -284.9612914 196.29578184 -286 200 C-285.65950589 202.18386263 -285.65950589 202.18386263 -285 204 C-283.88818359 203.51080078 -283.88818359 203.51080078 -282.75390625 203.01171875 C-264.3061728 195.35715126 -245.74842976 194.47791697 -226.17651367 197.93212891 C-220.40012151 198.92803822 -214.85782322 199.16705701 -209 199 C-208.505 197.515 -208.505 197.515 -208 196 C-213.54289003 185.39621038 -224.4105919 179.56481727 -235.38671875 175.85546875 C-252.65127323 171.76796882 -268.41034584 177.43940204 -280.48828125 190.13671875 Z " fill="#CCCCCC" transform="translate(689,286)"/>
<path d="M0 0 C0.99 0.495 0.99 0.495 2 1 C1.43152344 1.556875 0.86304688 2.11375 0.27734375 2.6875 C-4.71276357 7.61929221 -9.507773 12.6110858 -14 18 C-14.42651855 18.50740723 -14.85303711 19.01481445 -15.29248047 19.53759766 C-42.27795217 51.80343972 -58.00342134 89.45536457 -63.5703125 131.01171875 C-64 134 -64 134 -64.51196289 136.21191406 C-65.11873095 139.67829284 -65.20005923 143.08936825 -65.23828125 146.59765625 C-65.24798447 147.33622864 -65.25768768 148.07480103 -65.26768494 148.83575439 C-65.29271618 151.2447249 -65.3052404 153.65341208 -65.3125 156.0625 C-65.31511841 156.88624115 -65.31773682 157.7099823 -65.32043457 158.5586853 C-65.3274913 179.35512738 -63.1081902 200.04497548 -57 220 C-56.64663574 221.1748999 -56.64663574 221.1748999 -56.28613281 222.37353516 C-48.13711869 249.09555323 -35.98840676 274.45974223 -18 296 C-17.11919522 297.08284845 -16.23900308 298.16619547 -15.359375 299.25 C-5.97593485 310.69186279 4.25819037 320.96424981 16 330 C16.53931152 330.42104004 17.07862305 330.84208008 17.63427734 331.27587891 C38.47762737 347.47160535 62.24888178 360.23408487 87.97705078 366.453125 C90.09202828 367.02487851 92.10990089 367.74616378 94.16796875 368.49609375 C100.12792095 370.53149665 106.28259074 371.26147094 112.5 372.125 C114.84426038 372.45735726 117.18804402 372.79310113 119.53125 373.1328125 C120.55798828 373.27605957 121.58472656 373.41930664 122.64257812 373.56689453 C125 374 125 374 126 375 C128.35313555 375.07271741 130.70833668 375.08370868 133.0625 375.0625 C134.99802734 375.04896484 134.99802734 375.04896484 136.97265625 375.03515625 C137.97167969 375.02355469 138.97070312 375.01195312 140 375 C140.33 374.34 140.66 373.68 141 373 C141.66 373 142.32 373 143 373 C143 373.66 143 374.32 143 375 C143.66 375 144.32 375 145 375 C145.17435893 364.14594644 145.34052535 353.29178191 145.5 342.4375 C145.51187725 341.62941895 145.5237545 340.82133789 145.53599167 339.98876953 C145.98379704 309.32339392 146.12459211 278.66882614 146 248 C146.66 247.67 147.32 247.34 148 247 C148.67365964 279.41932846 149.09978769 311.82369662 149.0625 344.25 C149.06164398 344.99981266 149.06078796 345.74962532 149.05990601 346.52215958 C149.04865939 355.68146482 149.02880314 364.84073181 149 374 C149.66 374.33 150.32 374.66 151 375 C151 375.66 151 376.32 151 377 C165.09934481 381.6997816 184.04653968 376.21785075 197.375 370.98828125 C200 370 200 370 202 370 C202 369.34 202 368.68 202 368 C203.9570868 367.32968281 205.91571113 366.66385317 207.875 366 C208.96554687 365.62875 210.05609375 365.2575 211.1796875 364.875 C214 364 214 364 216 364 C216 363.34 216 362.68 216 362 C216.556875 361.91363281 217.11375 361.82726562 217.6875 361.73828125 C223.01236279 360.75785888 226.78884388 359.20557656 231.17578125 356.0234375 C233 355 233 355 237 355 C237 354.34 237 353.68 237 353 C237.63808594 352.81824219 238.27617188 352.63648438 238.93359375 352.44921875 C239.75988281 352.19785156 240.58617187 351.94648437 241.4375 351.6875 C242.26121094 351.44386719 243.08492187 351.20023438 243.93359375 350.94921875 C244.61550781 350.63597656 245.29742188 350.32273437 246 350 C246.33 349.01 246.66 348.02 247 347 C249.30484025 345.98021135 251.48917287 345.14646506 253.875 344.375 C254.83212891 344.05015625 254.83212891 344.05015625 255.80859375 343.71875 C257.53535418 343.13475169 259.26746599 342.56664054 261 342 C261.99 341.67 262.98 341.34 264 341 C264.92683594 340.85691406 265.85367187 340.71382812 266.80859375 340.56640625 C269.98259925 340.08697107 269.98259925 340.08697107 272.84765625 339.02734375 C286.13782651 334.52192759 300.15030173 335.63733291 314 336 C314 336.66 314 337.32 314 338 C314.74765625 338.04898437 315.4953125 338.09796875 316.265625 338.1484375 C317.74289062 338.26058594 317.74289062 338.26058594 319.25 338.375 C320.22453125 338.44460938 321.1990625 338.51421875 322.203125 338.5859375 C324.89633189 338.98465249 326.66963279 339.63507063 329 341 C329 341.66 329 342.32 329 343 C330.07507813 343.14308594 330.07507813 343.14308594 331.171875 343.2890625 C334.44653399 344.11225026 336.5031536 345.42589043 339.25 347.375 C340.12140625 347.98085938 340.9928125 348.58671875 341.890625 349.2109375 C344 351 344 351 345 354 C346.76832815 354.63143136 346.76832815 354.63143136 349 355 C352.1875 355.9375 352.1875 355.9375 355 357 C355.33 357.66 355.66 358.32 356 359 C355.67 359.66 355.34 360.32 355 361 C355.66 361 356.32 361 357 361 C357 360.34 357 359.68 357 359 C357.66 359 358.32 359 359 359 C359.33 288.05 359.66 217.1 360 144 C360.66 144 361.32 144 362 144 C362.02278993 174.43016386 362.04049795 204.86032684 362.05106533 235.29049727 C362.05231611 238.87929312 362.05361042 242.46808894 362.05493164 246.05688477 C362.05532511 247.1286267 362.05532511 247.1286267 362.05572652 248.22201998 C362.06008331 259.80612918 362.0679709 271.39023345 362.0771528 282.97433972 C362.0864891 294.85190458 362.09205556 306.72946684 362.09408849 318.60703522 C362.09534006 325.28217621 362.09848476 331.95730734 362.10573006 338.63244438 C362.11248609 344.9072829 362.11461782 351.18210551 362.11310768 357.45694733 C362.1133842 359.76732278 362.11539178 362.07769874 362.11920547 364.38807106 C362.12413621 367.52752774 362.12300059 370.66692331 362.12025452 373.80638123 C362.12462378 375.19691693 362.12462378 375.19691693 362.12908131 376.61554426 C362.11412121 382.88587879 362.11412121 382.88587879 361 384 C359.31391034 384.07205511 357.62499341 384.08386068 355.9375 384.0625 C355.01839844 384.05347656 354.09929687 384.04445313 353.15234375 384.03515625 C352.44207031 384.02355469 351.73179687 384.01195312 351 384 C350.40832031 382.91460938 349.81664062 381.82921875 349.20703125 380.7109375 C348.40919114 379.26543895 347.61099506 377.82013685 346.8125 376.375 C346.42513672 375.66214844 346.03777344 374.94929688 345.63867188 374.21484375 C339.11462912 362.46078325 330.30476449 356.14537948 317.60546875 351.7265625 C312.16714755 350.21002915 306.813693 349.7670409 301.1875 349.6875 C300.22553711 349.64399414 300.22553711 349.64399414 299.24414062 349.59960938 C284.69473477 349.42167685 270.58216235 355.39853501 257.30935669 360.68395996 C240.43846456 367.38390657 223.60814941 373.50914278 206 378 C205.16178711 378.21543457 204.32357422 378.43086914 203.45996094 378.65283203 C145.57036385 393.11935538 83.4173991 384.75566683 32.109375 354.1640625 C18.26400134 345.55022052 5.76402867 335.25559822 -6 324 C-7.31291016 322.75863281 -7.31291016 322.75863281 -8.65234375 321.4921875 C-10.9037977 319.10212491 -12.3542519 316.82064183 -14 314 C-15.27815881 312.53188128 -16.59398908 311.09605987 -17.9375 309.6875 C-53.75478553 270.33485134 -73.97764353 217.01000481 -73 164 C-72.67 164 -72.34 164 -72 164 C-71.91435791 164.65073486 -71.82871582 165.30146973 -71.74047852 165.97192383 C-71.35085906 168.91919374 -70.95673217 171.86584371 -70.5625 174.8125 C-70.42779297 175.83666016 -70.29308594 176.86082031 -70.15429688 177.91601562 C-70.02216797 178.89892578 -69.89003906 179.88183594 -69.75390625 180.89453125 C-69.63345947 181.80050049 -69.5130127 182.70646973 -69.38891602 183.63989258 C-69.04037128 186.1418344 -69.04037128 186.1418344 -68 189 C-68.00666183 188.40770096 -68.01332367 187.81540192 -68.02018738 187.20515442 C-68.08762574 180.92483061 -68.13223946 174.64461283 -68.16479492 168.36401367 C-68.17969155 166.03389292 -68.20001569 163.70379921 -68.22631836 161.3737793 C-68.44536168 141.44083724 -66.97387027 122.61246184 -61.75 103.3125 C-61.44481445 102.16950439 -61.13962891 101.02650879 -60.82519531 99.84887695 C-53.16929737 71.92215983 -39.66862366 46.84624231 -22 24 C-21.35804688 23.15179688 -20.71609375 22.30359375 -20.0546875 21.4296875 C-16.91940602 17.31717542 -13.69903525 13.62758286 -10 10 C-9.11699219 9.11699219 -8.23398437 8.23398437 -7.32421875 7.32421875 C-4.8828125 4.8828125 -2.44140625 2.44140625 0 0 Z " fill="#989898" transform="translate(369,352)"/>
<path d="M0 0 C0.7415332 -0.00604248 1.48306641 -0.01208496 2.24707031 -0.01831055 C3.01631836 -0.00453369 3.78556641 0.00924316 4.578125 0.0234375 C5.38088867 0.03141357 6.18365234 0.03938965 7.01074219 0.04760742 C12.11148663 0.17001289 16.5415924 0.76954396 21.3515625 2.5546875 C24.42890328 3.60311906 27.50618127 4.1258759 30.703125 4.7109375 C36.76076091 5.95403542 41.65526986 8.05991512 47.078125 10.98046875 C50.25529819 12.61869867 53.42271138 13.70968919 56.828125 14.76171875 C59.22670683 15.52532976 61.51596623 16.4967821 63.81640625 17.515625 C66.47163948 18.68083415 69.14987291 19.78721241 71.828125 20.8984375 C76.17333533 22.7053026 80.50783156 24.53285624 84.828125 26.3984375 C84.828125 27.0584375 84.828125 27.7184375 84.828125 28.3984375 C85.9109375 28.79095703 85.9109375 28.79095703 87.015625 29.19140625 C94.28193297 32.30986342 102.2025258 37.86331161 106.203125 44.7734375 C108.18987674 47.98280569 110.65472613 50.28207541 113.40234375 52.84765625 C114.828125 54.3984375 114.828125 54.3984375 114.828125 56.3984375 C115.488125 56.3984375 116.148125 56.3984375 116.828125 56.3984375 C120.6953125 63.1015625 120.6953125 63.1015625 121.890625 65.7734375 C122.79487367 67.75608133 122.79487367 67.75608133 125.828125 68.3984375 C126.50253631 70.0619854 127.1681571 71.72910692 127.828125 73.3984375 C128.405625 73.9759375 128.983125 74.5534375 129.578125 75.1484375 C137.35327198 82.92358448 144.06483779 94.56681609 145.828125 105.3984375 C147.28645858 107.02358218 147.28645858 107.02358218 148.828125 108.3984375 C149.515625 110.5859375 149.515625 110.5859375 149.828125 112.3984375 C150.488125 112.3984375 151.148125 112.3984375 151.828125 112.3984375 C151.9828125 113.419375 151.9828125 113.419375 152.140625 114.4609375 C152.96996626 118.00448653 154.339899 121.07854874 155.828125 124.3984375 C156.3025 125.5946875 156.776875 126.7909375 157.265625 128.0234375 C158.78427988 131.30373203 160.48819109 133.66851461 162.828125 136.3984375 C164.21038516 139.16295783 163.92337887 141.4445738 163.890625 144.5234375 C163.88160156 145.61914062 163.87257813 146.71484375 163.86328125 147.84375 C163.84587891 149.10832031 163.84587891 149.10832031 163.828125 150.3984375 C164.7975 150.2128125 165.766875 150.0271875 166.765625 149.8359375 C168.2815625 149.619375 168.2815625 149.619375 169.828125 149.3984375 C170.158125 149.7284375 170.488125 150.0584375 170.828125 150.3984375 C172.15350876 147.74766999 171.96801194 145.73675354 171.98634338 142.76705933 C171.9961322 141.56950012 172.00592102 140.37194092 172.01600647 139.13809204 C172.021911 137.80413858 172.02772143 136.47018471 172.03344727 135.13623047 C172.04302347 133.73693552 172.0530334 132.33764347 172.06344604 130.93835449 C172.09052912 127.13282774 172.11152022 123.32728855 172.13144803 119.5217185 C172.15328663 115.54718083 172.1806857 111.57268167 172.20750427 107.59817505 C172.25745996 100.06882806 172.3023881 92.53945972 172.34552664 85.01007092 C172.39487446 76.43942462 172.44980168 67.86881695 172.50520623 59.298208 C172.61907042 41.66498702 172.72589978 24.0317296 172.828125 6.3984375 C173.158125 6.3984375 173.488125 6.3984375 173.828125 6.3984375 C174.70157063 15.10739858 174.97655589 23.72366398 174.97338867 32.47290039 C174.97638902 33.83924449 174.97979353 35.20558775 174.98356628 36.57192993 C174.9923104 40.24279591 174.99473998 43.91363851 174.99538207 47.5845139 C174.99609678 49.88082762 174.99823875 52.17713553 175.00087929 54.4734478 C175.01009298 62.49101001 175.0142182 70.50855571 175.01342773 78.52612305 C175.01282439 85.99376113 175.02343634 93.46132758 175.0391714 100.92894751 C175.05222957 107.35551355 175.05761253 113.78205606 175.05697232 120.20863527 C175.05671731 124.04104837 175.05957179 127.87339735 175.07015038 131.7057972 C175.07980511 135.30018346 175.07992878 138.89444377 175.07263374 142.48883438 C175.07108479 144.43834795 175.07944836 146.38786146 175.08807373 148.33735657 C175.08387924 149.49370605 175.07968475 150.65005554 175.07536316 151.84144592 C175.07590793 152.84812852 175.07645269 153.85481112 175.07701397 154.89199924 C174.828125 157.3984375 174.828125 157.3984375 172.828125 160.3984375 C170.2265625 160.69140625 170.2265625 160.69140625 167.203125 160.5859375 C166.20023438 160.55886719 165.19734375 160.53179687 164.1640625 160.50390625 C163.39320313 160.46910156 162.62234375 160.43429687 161.828125 160.3984375 C161.51959595 159.47901367 161.51959595 159.47901367 161.20483398 158.54101562 C150.20828484 125.93245181 135.68227613 95.3613144 112.0078125 69.88671875 C110.828125 68.3984375 110.828125 68.3984375 110.828125 66.3984375 C110.168125 66.3984375 109.508125 66.3984375 108.828125 66.3984375 C107.5234375 65.0703125 107.5234375 65.0703125 105.953125 63.1484375 C93.51156309 48.63753983 79.19461649 37.24773328 62.828125 27.3984375 C61.94640625 26.83898437 61.0646875 26.27953125 60.15625 25.703125 C41.47592813 14.1956339 19.38342833 6.59831031 -2.49609375 4.8515625 C-4.09650513 4.72249512 -4.09650513 4.72249512 -5.72924805 4.59082031 C-6.53531494 4.52733398 -7.34138184 4.46384766 -8.171875 4.3984375 C-8.17095321 5.62808511 -8.17003141 6.85773272 -8.16908169 8.12464237 C-8.14725634 37.54888943 -8.13085189 66.97313459 -8.12080967 96.39738778 C-8.11955949 100.04707038 -8.11826512 103.69675297 -8.11694336 107.34643555 C-8.11668105 108.07278881 -8.11641874 108.79914206 -8.11614848 109.54750603 C-8.11183908 121.19107068 -8.10397864 132.83463021 -8.0947222 144.47819186 C-8.08525218 156.49384036 -8.07979173 168.50948624 -8.07778651 180.52513832 C-8.07655705 187.24534147 -8.07356093 193.96553181 -8.06614494 200.68573189 C-8.03154568 233.27080572 -8.30320716 265.82417833 -9.171875 298.3984375 C-9.831875 298.3984375 -10.491875 298.3984375 -11.171875 298.3984375 C-11.20673391 264.44991442 -11.11390354 230.50270444 -10.96994591 196.55450749 C-10.9441517 190.42693035 -10.91927281 184.29934955 -10.89437181 178.17176872 C-10.84520459 166.07975999 -10.79520117 153.98775488 -10.74462891 141.89575195 C-10.69566724 130.18839705 -10.64712616 118.48104051 -10.59912109 106.77368164 C-10.5961341 106.04525474 -10.5931471 105.31682784 -10.59006959 104.5663274 C-10.5750789 100.90999757 -10.56009617 97.25366772 -10.54511738 93.59733784 C-10.42193536 63.53103259 -10.29736372 33.46473322 -10.171875 3.3984375 C-3.61227221 0.01854712 -3.61227221 0.01854712 0 0 Z " fill="#9A9A9A" transform="translate(526.171875,293.6015625)"/>
<path d="M0 0 C0.73345449 0.00582568 1.46690899 0.01165137 2.22258937 0.01765358 C3.38896507 0.01509031 3.38896507 0.01509031 4.57890391 0.01247525 C7.19849564 0.00916687 9.81783426 0.02020608 12.43740261 0.03111184 C14.30959493 0.03167566 16.18178769 0.03135996 18.05397975 0.03022683 C23.1487786 0.02965118 28.24348396 0.04143962 33.33826101 0.05537474 C38.65807711 0.06784696 43.97789518 0.06904982 49.29772365 0.07142556 C59.37706209 0.07765067 69.45635733 0.0940754 79.53567672 0.11412454 C91.00829201 0.1364515 102.48090933 0.1474689 113.95354092 0.15751541 C137.55869979 0.17844076 161.16382027 0.21363672 184.76894557 0.25816262 C185.09894557 1.57816262 185.42894557 2.89816262 185.76894557 4.25816262 C185.10894557 4.25816262 184.44894557 4.25816262 183.76894557 4.25816262 C183.76894557 6.23816262 183.76894557 8.21816262 183.76894557 10.25816262 C181.2502817 11.51749455 179.5249215 11.38682218 176.70511806 11.39187539 C175.0967004 11.39827286 175.0967004 11.39827286 173.45578945 11.40479958 C172.27401622 11.40434639 171.092243 11.40389321 169.87465847 11.40342629 C168.01340831 11.40846421 168.01340831 11.40846421 166.11455715 11.4136039 C162.70287013 11.42149521 159.29124398 11.42478279 155.87955201 11.42541969 C153.745044 11.42613022 151.61054237 11.42826476 149.47603595 11.43091691 C142.01987606 11.44017978 134.56373407 11.44425123 127.10756862 11.44346535 C120.17538669 11.44286655 113.24328307 11.45337691 106.31112093 11.46920902 C100.35002011 11.48233425 94.3889447 11.48764706 88.42782956 11.48700994 C84.87223167 11.48675611 81.31670314 11.48954237 77.76111972 11.50018799 C73.78331071 11.51177073 69.80560653 11.50709182 65.82778347 11.50108254 C64.66422832 11.50670205 63.50067317 11.51232155 62.30185878 11.51811135 C56.07025453 11.49429845 50.23931575 11.00762725 44.13266075 9.7420541 C40.61832579 9.02261177 37.08278907 8.64076385 33.51894557 8.25816262 C32.04878918 8.09241856 30.57873863 7.92573329 29.10878932 7.75816262 C28.382886 7.67566262 27.65698268 7.59316262 26.90908229 7.50816262 C16.50474219 6.29277997 6.13515717 4.75958618 -4.23105443 3.25816262 C-3.90105443 5.23816262 -3.57105443 7.21816262 -3.23105443 9.25816262 C-4.22105443 8.92816262 -5.21105443 8.59816262 -6.23105443 8.25816262 C-6.85605443 5.38316262 -6.85605443 5.38316262 -7.23105443 2.25816262 C-4.761201 -0.2116908 -3.37012355 0.02015562 0 0 Z " fill="#FDFDFD" transform="translate(545.2310544252396,491.7418373823166)"/>
<path d="M0 0 C0.66 1.32 1.32 2.64 2 4 C2.66 4 3.32 4 4 4 C2.65941846 7.50339164 1.12387711 10.79074809 -0.64453125 14.09765625 C-1.40914673 15.53806274 -1.40914673 15.53806274 -2.18920898 17.00756836 C-2.72489502 18.0156958 -3.26058105 19.02382324 -3.8125 20.0625 C-10.64215572 33.06699587 -15.90674138 45.89118717 -20 60 C-20.21688477 60.73637695 -20.43376953 61.47275391 -20.65722656 62.23144531 C-26.92307807 83.74204895 -28.43974552 104.46735426 -28.1875 126.8125 C-28.17240392 129.17381945 -28.15872435 131.53514839 -28.14648438 133.89648438 C-28.11391992 139.59786868 -28.06412279 145.29888764 -28 151 C-28.66 151.33 -29.32 151.66 -30 152 C-30.72311816 147.71340767 -31.40478116 143.42209641 -32.0625 139.125 C-32.23910156 137.97257813 -32.41570312 136.82015625 -32.59765625 135.6328125 C-32.73042969 134.76398438 -32.86320312 133.89515625 -33 133 C-35.56358058 184.17666417 -9.26335742 236.59669337 24.1875 273.875 C25.45368741 275.25427945 26.72258331 276.63111397 28 278 C27.67 278.66 27.34 279.32 27 280 C19.79896144 273.26859439 13.82182254 265.90537491 8 258 C7.37907471 257.17024658 7.37907471 257.17024658 6.74560547 256.32373047 C-11.61564924 231.76313068 -23.82830154 204.27374216 -31.1875 174.5625 C-31.56322144 173.06203125 -31.56322144 173.06203125 -31.9465332 171.53125 C-35.57806607 156.29233036 -36.28451003 141.81458007 -35.75 126.25 C-35.7228894 125.36715332 -35.69577881 124.48430664 -35.66784668 123.57470703 C-34.438855 83.60261253 -26.60058134 46.28160232 -7.1875 10.9375 C-6.81439697 10.25171875 -6.44129395 9.5659375 -6.05688477 8.859375 C-3.36507468 4.12169156 -3.36507468 4.12169156 0 3 C0 2.01 0 1.02 0 0 Z " fill="#D2D2D2" transform="translate(330,390)"/>
<path d="M0 0 C12.91768245 11.93659264 17.40687046 37.71813493 18.1640625 54.67382812 C19.1605278 85.51613922 16.45879882 117.43730985 0.8203125 144.78125 C-0.2038979 147.55149528 0.2017355 149.2011467 1 152 C0.01 152.33 -0.98 152.66 -2 153 C-2.103125 154.010625 -2.20625 155.02125 -2.3125 156.0625 C-3.05027371 160.28793123 -4.030042 163.21161922 -6 167 C-6.99 167.33 -7.98 167.66 -9 168 C-10.68873879 169.64429829 -12.35305515 171.31384218 -14 173 C-20.24780608 178.69652907 -28.01167602 182.43976697 -36 185 C-37.27112365 185.47143461 -38.5392125 185.9511062 -39.8046875 186.4375 C-40.47113281 186.69273437 -41.13757813 186.94796875 -41.82421875 187.2109375 C-43.1846037 187.73436181 -44.54399396 188.26037915 -45.90234375 188.7890625 C-58.5280707 193.60581382 -70.57954713 194.17404046 -84 194 C-84 193.67 -84 193.34 -84 193 C-82.8140625 192.84144531 -81.628125 192.68289063 -80.40625 192.51953125 C-59.83654405 189.62193778 -40.83453444 183.59897993 -24 171 C-23.40574219 170.55785156 -22.81148437 170.11570312 -22.19921875 169.66015625 C-19.23660632 167.33390448 -17.57852665 165.36752352 -16 162 C-15.278125 161.29875 -14.55625 160.5975 -13.8125 159.875 C7.43682832 139.18486453 14.81720272 102.99680031 15.27038574 74.56387329 C15.5252284 51.06925984 14.124454 26.92174027 1.78125 6.15234375 C0 3 0 3 0 0 Z " fill="#F9F9F9" transform="translate(606,534)"/>
<path d="M0 0 C0 3.80609954 -1.28059798 5.54549506 -3.125 8.875 C-6.3045839 14.92166199 -8.45056694 21.05936002 -10.3125 27.625 C-10.55436035 28.47046387 -10.7962207 29.31592773 -11.04541016 30.18701172 C-14.41697701 42.54467147 -15.32255534 54.31469441 -15.26074219 67.0612793 C-15.25009022 69.66544263 -15.26065402 72.26890535 -15.2734375 74.87304688 C-15.28774014 90.05957191 -13.78023993 104.63663165 -10.5625 119.5 C-10.35818359 120.49257813 -10.15386719 121.48515625 -9.94335938 122.5078125 C-8.80996359 127.86054775 -7.45420941 132.9805222 -5.54785156 138.11206055 C-4.24189507 142.61248905 -6.03088139 146.06176278 -8 150 C-12.26703089 164.33530602 -11.10149143 180.05478214 -6 194 C-5.73155273 194.74008301 -5.46310547 195.48016602 -5.18652344 196.24267578 C-0.27408452 209.53563756 5.74782071 222.2943744 12 235 C12.34530762 235.70576172 12.69061523 236.41152344 13.04638672 237.13867188 C15.32129844 241.78134886 17.64829593 246.39581098 20 251 C20.59651367 252.1741748 20.59651367 252.1741748 21.20507812 253.37207031 C37.72880221 285.80145551 56.01911996 320.75678002 89 339 C87.68 339.99 86.36 340.98 85 342 C84.7628125 341.40574219 84.525625 340.81148437 84.28125 340.19921875 C82.71263134 337.50674221 81.11572114 336.4887137 78.5 334.8125 C72.86241403 331.01343413 67.9106918 326.689901 63 322 C62.18801147 321.23175903 62.18801147 321.23175903 61.35961914 320.44799805 C56.99919933 316.22562318 53.33035877 311.75202706 49.8125 306.8125 C49.25353027 306.02987793 48.69456055 305.24725586 48.11865234 304.44091797 C31.89533231 281.3934667 19.24028758 255.91966619 6.9375 230.625 C6.5820108 229.89546112 6.22652161 229.16592224 5.86026001 228.41427612 C-6.24601288 203.51343028 -6.24601288 203.51343028 -9.8125 191.5 C-10.11704102 190.52546875 -10.11704102 190.52546875 -10.42773438 189.53125 C-14.26594688 176.96522094 -15.55518896 160.23160873 -10 148 C-9.63390625 147.31808594 -9.2678125 146.63617188 -8.890625 145.93359375 C-6.73332736 141.24998704 -9.39887432 135.65865543 -10.8828125 131.0625 C-16.96663709 111.35655622 -18.48357826 91.68377941 -18.5 71.1875 C-18.5043103 70.25968719 -18.50862061 69.33187439 -18.51306152 68.37594604 C-18.55530714 47.17263449 -16.43058073 17.81043491 -1.2890625 1.11328125 C-0.86367188 0.74589844 -0.43828125 0.37851562 0 0 Z " fill="#7E7E7E" transform="translate(373,362)"/>
<path d="M0 0 C0.66 0 1.32 0 2 0 C2 1.32 2 2.64 2 4 C4.52471014 4.84157005 5.77363111 5.06552784 8.375 4.3125 C11 4 11 4 14.3125 5.8125 C15.199375 6.534375 16.08625 7.25625 17 8 C17 8.66 17 9.32 17 10 C16.34 10 15.68 10 15 10 C15 10.66 15 11.32 15 12 C15.66 12.33 16.32 12.66 17 13 C17 13.66 17 14.32 17 15 C23.435 17.97 23.435 17.97 30 21 C25.20117064 22.19970734 24.25595054 21.48437403 20 19.25 C18.453125 18.45335937 18.453125 18.45335937 16.875 17.640625 C14.41169944 16.23493718 12.21258361 14.76581192 10 13 C9.67 13.99 9.34 14.98 9 16 C9 15.34 9 14.68 9 14 C8.01 14.33 7.02 14.66 6 15 C8.32513328 29.88619814 22.28041783 44.76000201 33.95800781 53.45849609 C38.21746555 56.44571317 42.58320533 59.25216958 47 62 C46.01 62.495 46.01 62.495 45 63 C25.30987064 54.74153665 10.57386677 34.78685513 2 16 C0.04573733 10.94268513 -1.29809628 6.45888805 -1 1 C-0.67 0.67 -0.34 0.34 0 0 Z " fill="#BEBEBE" transform="translate(425,569)"/>
<path d="M0 0 C0.33 0 0.66 0 1 0 C1.68563965 32.75279644 2.09900637 65.49009969 2.0625 98.25 C2.06164398 99.02372829 2.06078796 99.79745659 2.05990601 100.5946312 C2.0486408 110.06311166 2.02875509 119.53155524 2 129 C1.01 128.67 0.02 128.34 -1 128 C-1.02332889 111.45852931 -1.04097912 94.91706394 -1.05181217 78.37558079 C-1.05697515 70.69561273 -1.06401789 63.01565487 -1.07543945 55.33569336 C-1.08538623 48.64422011 -1.09185341 41.95275424 -1.09408849 35.2612738 C-1.09539561 31.71604399 -1.09848153 28.17083532 -1.10573006 24.62561226 C-1.1137438 20.67431355 -1.11399114 16.7230358 -1.11352539 12.77172852 C-1.11712067 11.58778 -1.12071594 10.40383148 -1.12442017 9.18400574 C-1.1230455 8.11403351 -1.12167084 7.04406128 -1.12025452 5.94166565 C-1.12117631 5.00604577 -1.1220981 4.07042589 -1.12304783 3.1064539 C-1 1 -1 1 0 0 Z " fill="#858585" transform="translate(516,599)"/>
<path d="M0 0 C0.66 0 1.32 0 2 0 C2.01417969 0.58265625 2.02835937 1.1653125 2.04296875 1.765625 C3.21161362 21.85368282 17.00780015 37.68786103 31 50.8125 C35.94673298 55.17071491 41.33488281 58.65047254 47 62 C46.01 62.495 46.01 62.495 45 63 C25.30987064 54.74153665 10.57386677 34.78685513 2 16 C0.04573733 10.94268513 -1.29809628 6.45888805 -1 1 C-0.67 0.67 -0.34 0.34 0 0 Z " fill="#7B7B7B" transform="translate(425,569)"/>
<path d="M0 0 C0.495 1.485 0.495 1.485 1 3 C-3.63564523 11.69183481 -10.79376427 16.08317284 -20 19 C-23.97939727 20.09911836 -27.97727762 21.07394807 -32 22 C-33.33411183 22.33020376 -34.66778832 22.66221173 -36 23 C-36 23.66 -36 24.32 -36 25 C-36.928125 25.8971875 -36.928125 25.8971875 -37.875 26.8125 C-42.00727046 31.06630782 -42.30192932 35.5510728 -42.625 41.3125 C-42.69976562 42.56675781 -42.77453125 43.82101562 -42.8515625 45.11328125 C-42.90054687 46.06589844 -42.94953125 47.01851562 -43 48 C-45.44117741 45.83652266 -45.95936312 45.33186785 -46.375 41.9375 C-45.77769365 35.66578338 -44.69264289 30.10436683 -40.6875 25.125 C-39.800625 24.42375 -38.91375 23.7225 -38 23 C-37.195625 22.29875 -36.39125 21.5975 -35.5625 20.875 C-32.33569674 18.77674192 -28.9321348 18.28324154 -25.1875 17.5625 C-15.27036596 15.60833344 -9.00848638 12.12686299 -3 4 C-2.38125 3.195625 -1.7625 2.39125 -1.125 1.5625 C-0.75375 1.046875 -0.3825 0.53125 0 0 Z " fill="#F8F8F8" transform="translate(457,539)"/>
<path d="M0 0 C3.44360041 2.26293741 5.42254876 4.47544968 7.3125 8.0625 C17.12311398 26.56682729 32.58011948 41.51580281 52.5625 48.30859375 C55.02650197 49.00751738 57.48184335 49.53683905 60 50 C60 50.33 60 50.66 60 51 C45.58473858 51 33.27244626 42.46012761 23 33 C22.33097656 32.43410156 21.66195313 31.86820313 20.97265625 31.28515625 C13.48415586 24.53172338 8.35534651 15.45459297 3 7 C2.38769531 6.03449219 1.77539062 5.06898438 1.14453125 4.07421875 C0 2 0 2 0 0 Z " fill="#F7F7F7" transform="translate(434,580)"/>
<path d="M0 0 C0.33 0.66 0.66 1.32 1 2 C2.65 1.67 4.3 1.34 6 1 C4.57153833 3.85692333 2.73250056 4.10272919 -0.1875 5.3125 C-4.88025486 7.38121768 -8.37557816 9.37557816 -12 13 C-13.63889879 17.91669638 -14.28524594 24.14888674 -12.10546875 28.984375 C-11.13464595 30.37028458 -10.07333461 31.69187345 -9 33 C-9 33.66 -9 34.32 -9 35 C-7.35 35.33 -5.7 35.66 -4 36 C-5.625 36.8125 -5.625 36.8125 -8 37 C-11.49243985 34.6949897 -13.44061069 33.06792504 -15.375 29.375 C-16.51700361 23.2081805 -17.08873234 17.44964776 -14.5 11.625 C-11.38988749 8.35938187 -8.05240883 5.98234718 -4 4 C-3.34 4 -2.68 4 -2 4 C-2 3.34 -2 2.68 -2 2 C-1.34 2 -0.68 2 0 2 C0 1.34 0 0.68 0 0 Z " fill="#888888" transform="translate(482,520)"/>
<path d="M0 0 C0.66 0 1.32 0 2 0 C1.58054933 4.8935912 -0.35704023 6.83220889 -4 10 C-5.24088766 10.90841354 -6.49110925 11.80420422 -7.75 12.6875 C-11.00635047 14.62145364 -11.00635047 14.62145364 -12 17 C-12.39803635 21.97083124 -12.39803635 21.97083124 -10.5 26.4375 C-10.005 26.953125 -9.51 27.46875 -9 28 C-11.59060578 27.64267506 -12.84567494 27.1383604 -14.8125 25.375 C-16.61680635 21.76638731 -16.18703229 19.82488183 -15 16 C-12.91356295 13.65136364 -10.54041739 11.83534392 -8 10 C-3.92636287 7.03735481 -2.00864897 4.65160814 0 0 Z " fill="#F9F9F9" transform="translate(489,521)"/>
<path d="M0 0 C0 0.66 0 1.32 0 2 C-1.0725 2.61875 -2.145 3.2375 -3.25 3.875 C-3.88808594 4.24367188 -4.52617187 4.61234375 -5.18359375 4.9921875 C-7 6 -7 6 -9.3125 7 C-11.52724012 8.31243859 -11.89346805 9.69576119 -13 12 C-13.77752281 13.25884645 -14.5697136 14.50873052 -15.375 15.75 C-17.88361867 19.71019327 -19.96470998 23.77865774 -22 28 C-22.90162733 25.52194251 -23.09050849 24.28636292 -22.28515625 21.73828125 C-18.36010713 13.95088347 -10.17256684 0 0 0 Z " fill="#858585" transform="translate(410,409)"/>
<path d="M0 0 C5.38348037 0.63335063 9.20910893 3.20910893 13 7 C13.125 9.625 13.125 9.625 13 12 C12.01 12.33 11.02 12.66 10 13 C10.12375 12.278125 10.2475 11.55625 10.375 10.8125 C10.25833189 7.6984619 10.25833189 7.6984619 7.25 5.375 C6.17719429 4.56912462 5.09418254 3.77660273 4 3 C3.21625 2.401875 2.4325 1.80375 1.625 1.1875 C1.08875 0.795625 0.5525 0.40375 0 0 Z " fill="#FAFAFA" transform="translate(471,408)"/>
<path d="M0 0 C3.56764821 0.57619097 5.25159497 1.86969484 7.75 4.4375 C8.67039062 5.36369141 8.67039062 5.36369141 9.609375 6.30859375 C11 8 11 8 11 10 C12.32 10.66 13.64 11.32 15 12 C10.4117728 11.54357949 8.71299156 10.06889695 5.8125 6.5625 C5.13832031 5.75941406 4.46414063 4.95632813 3.76953125 4.12890625 C3.18558594 3.42636719 2.60164063 2.72382812 2 2 C1.34 1.34 0.68 0.68 0 0 Z " fill="#8D8D8D" transform="translate(490,557)"/>
</svg>
